<svg width="61" height="65" viewBox="0 0 61 65" fill="none" xmlns="http://www.w3.org/2000/svg">
<path d="M31.3101 0.392482C29.406 0.494776 28.3632 0.610285 26.6274 0.903983C25.9476 1.01948 25.5648 1.10198 24.4791 1.36928C23.6871 1.56398 23.4528 1.62998 22.4331 1.96329C20.1726 2.69919 17.7042 3.84429 15.6417 5.11479C15.447 5.23358 15.2226 5.37218 15.1401 5.42168C14.7111 5.67908 13.5396 6.49748 13.3911 6.63938C13.3647 6.66578 13.2822 6.72518 13.2096 6.77138C12.9819 6.91658 12.3021 7.44788 12.0546 7.66898C12.0183 7.70198 11.8863 7.81088 11.7576 7.91648C10.893 8.60948 9.46407 9.99548 8.47077 11.0977C7.76457 11.8831 6.76137 13.1239 6.37857 13.6882C6.29277 13.8136 6.19707 13.9489 6.16407 13.9852C6.13107 14.0215 5.93637 14.3086 5.73177 14.6188C4.71867 16.15 3.84747 17.7208 3.14787 19.2652C1.51107 22.8919 0.603569 26.5813 0.352768 30.6667C0.306568 31.4389 0.306568 33.6367 0.352768 34.3957C0.550768 37.5802 1.13817 40.5007 2.12157 43.2232C3.09177 45.9028 4.19397 48.0907 5.76477 50.4469C5.95617 50.7373 6.17397 51.0541 6.24657 51.1498C6.31917 51.2455 6.43797 51.4039 6.51057 51.5062C6.58317 51.6052 6.69537 51.7603 6.75477 51.8461C6.96267 52.1299 7.87017 53.2486 8.17707 53.6017C8.94597 54.4828 10.0812 55.6345 10.9326 56.4001C11.7147 57.0997 12.8862 58.0567 13.1931 58.2448C13.2558 58.2844 13.3383 58.3438 13.3746 58.3768C13.5363 58.5286 14.7804 59.3932 15.1731 59.6275C15.2358 59.6671 15.4503 59.7958 15.6483 59.9179C15.9849 60.1258 16.3743 60.3535 16.6746 60.5185C16.7472 60.5581 16.9023 60.6439 17.0211 60.7132C17.46 60.9673 19.1595 61.7989 19.8195 62.0794C22.4595 63.208 25.0764 63.934 27.9276 64.3267C29.6469 64.5643 30.6501 64.6303 32.4321 64.6303C34.2141 64.6303 35.2173 64.5643 36.9366 64.3267C40.3191 63.8581 43.5366 62.878 46.4736 61.4161C48.2259 60.5449 49.1037 60.0334 50.6481 58.9906C50.9055 58.8157 51.3741 58.4791 51.4137 58.4395C51.4401 58.4164 51.6612 58.2481 51.9054 58.0732C52.1496 57.895 52.473 57.6442 52.6248 57.5155C52.7766 57.3868 52.9845 57.2152 53.0868 57.136C54.0636 56.3638 55.9215 54.5191 56.9313 53.3212C57.1491 53.0638 57.8289 52.219 57.9609 52.0474C58.1952 51.7339 58.4955 51.328 58.545 51.2587C58.5747 51.2125 58.7067 51.0277 58.8321 50.8462C59.2281 50.2852 59.5317 49.8133 59.9112 49.1797C60.5382 48.1303 60.6141 47.9818 60.6141 47.83C60.6141 47.5957 60.5481 47.5198 60.1587 47.302C59.5581 46.9621 59.5119 46.9852 59.0235 47.8465C58.6506 48.5032 57.9576 49.579 57.5253 50.1763C56.2944 51.8758 55.311 53.0374 54.0504 54.2914C53.2089 55.1263 51.8988 56.2747 51.0441 56.9182C50.9253 57.0073 50.7999 57.1096 50.7636 57.1426C50.7273 57.1756 50.6448 57.235 50.5821 57.2746C50.5194 57.3142 50.3115 57.4561 50.1201 57.5947C49.9287 57.73 49.536 58.0006 49.2456 58.192C48.7869 58.4989 48.5691 58.6342 47.9256 59.0236C47.3415 59.3767 45.675 60.2314 44.9886 60.5317C44.7708 60.6274 44.52 60.7396 44.4276 60.7825C44.0844 60.9409 42.9096 61.3732 42.0681 61.6537C39.4578 62.5249 36.9036 63.0067 34.0326 63.1717C32.8875 63.2377 31.0494 63.208 29.8581 63.1024C28.1685 62.9572 26.7165 62.7229 25.2711 62.3632C25.0995 62.3203 24.9147 62.2774 24.8586 62.2708C24.8058 62.2609 24.687 62.2312 24.5946 62.2048C24.3999 62.1454 23.5947 61.9177 23.5221 61.9012C23.3835 61.8715 21.8457 61.3336 21.321 61.1323C19.2717 60.3436 17.0343 59.1754 15.3711 58.0303C15.3084 57.9874 15.1599 57.8851 15.0411 57.8059C14.9223 57.7267 14.7705 57.6211 14.7012 57.5716C14.6352 57.5188 14.4636 57.4 14.3217 57.301C14.1831 57.202 14.061 57.1129 14.0511 57.0997C14.0412 57.0898 13.9455 57.0139 13.8366 56.9347C13.6419 56.7928 13.5429 56.7136 13.0083 56.2747C12.2493 55.6543 10.8897 54.4135 10.4178 53.9086C9.30237 52.7239 8.20347 51.4138 7.55997 50.4997C7.12437 49.8826 6.81087 49.4173 6.35547 48.7177C5.62617 47.5891 4.65597 45.6883 4.02897 44.1637C3.39867 42.6259 2.75187 40.5337 2.42187 38.9497C1.91037 36.5275 1.71567 34.5046 1.75197 32.0593C1.77177 30.802 1.79157 30.4291 1.89387 29.4127C2.28987 25.4791 3.45147 21.6412 5.31267 18.1234C5.76477 17.2687 6.48417 16.0708 6.81747 15.6187C6.89337 15.5131 6.95607 15.4174 6.95607 15.4042C6.95607 15.391 6.99567 15.325 7.04847 15.259C7.09797 15.193 7.15407 15.1171 7.17057 15.0874C7.22667 14.9983 7.41807 14.7376 7.92297 14.0611C8.66547 13.0645 9.37497 12.2296 10.4178 11.1208C10.6818 10.8403 11.8533 9.73808 12.2691 9.37838C13.1172 8.64908 13.2756 8.52038 13.7871 8.13758C13.9224 8.03528 14.0412 7.93958 14.0511 7.92638C14.061 7.91318 14.1963 7.81748 14.3514 7.71188C14.5065 7.60298 14.8167 7.38848 15.0444 7.22678C16.2522 6.37868 17.3874 5.71208 18.9351 4.94648C21.0273 3.91358 23.1162 3.17438 25.578 2.60018C26.9871 2.27348 27.954 2.11508 29.3961 1.97648C31.749 1.74879 33.8643 1.77188 36.1941 2.05898C37.7121 2.24379 38.1378 2.32298 39.8571 2.72888C40.8834 2.96978 42.3123 3.42519 43.5564 3.90369C45.5925 4.68908 47.7408 5.81769 49.6416 7.10799C50.2257 7.50729 51.6249 8.54018 51.7371 8.65899C51.7635 8.68869 51.8691 8.77778 51.9681 8.85698C52.3113 9.13088 53.1726 9.88658 53.4861 10.1902C53.6577 10.3585 53.8227 10.507 53.8491 10.5235C53.9382 10.5763 55.0965 11.8105 55.5651 12.3517L55.7301 12.5431L55.2747 12.817C54.5256 13.2691 53.0901 14.17 51.0771 15.4471C50.7768 15.6385 49.4799 16.4569 48.1896 17.2687C45.9126 18.7009 45.6189 18.8857 44.5431 19.5754C44.2626 19.7569 43.7214 20.1001 43.3386 20.341C42.9591 20.5819 42.5433 20.8426 42.4146 20.9251C42.2892 21.0076 42.1308 21.1066 42.0681 21.1462C41.9394 21.2287 41.3916 21.5719 41.0121 21.8095C40.8768 21.8953 40.6227 22.0537 40.4511 22.1626C40.2795 22.2715 40.065 22.4101 39.9726 22.4695C39.8835 22.5256 39.6063 22.6972 39.3621 22.8523C39.1179 23.0074 38.745 23.2417 38.5371 23.3737C38.3292 23.5057 38.0883 23.6542 38.0058 23.7037C37.92 23.7565 37.7022 23.8951 37.5174 24.0139C37.3326 24.1327 37.1709 24.2317 37.1544 24.2317C37.1412 24.2317 37.0488 24.2878 36.9498 24.3538C36.8508 24.4231 36.7155 24.5089 36.6561 24.5419C36.5934 24.5782 36.4218 24.6838 36.2766 24.7762C36.1314 24.8719 35.7915 25.0864 35.5176 25.2547C35.247 25.423 34.9269 25.6243 34.8081 25.7002C34.6893 25.7761 34.4682 25.918 34.3131 26.0137C34.158 26.1094 33.9369 26.2513 33.8181 26.3272C33.5013 26.5318 32.9997 26.8486 32.8908 26.9113C32.849 26.9372 32.7951 26.9072 32.7951 26.858L32.7951 22.8259C32.7951 18.2818 32.833 18.5244 32.6251 18.4188C32.4436 18.3231 30.8184 18.4534 29.8911 18.6217C29.2179 18.7438 27.7362 19.1464 27.5976 19.2454C27.5811 19.2586 27.4458 19.3114 27.3006 19.3642C26.9277 19.4929 26.1951 19.8328 25.6869 20.11C25.2546 20.3476 24.5154 20.803 24.4362 20.8789C24.4164 20.902 24.3141 20.9713 24.2118 21.0373C23.9346 21.2122 23.2185 21.7996 22.8456 22.1527C21.519 23.41 20.6511 24.5584 19.8624 26.0962C19.3872 27.0169 18.9351 28.2148 18.7404 29.0497C18.6975 29.2213 18.6447 29.4523 18.6183 29.5645C18.4401 30.3334 18.3312 31.4224 18.3312 32.5147C18.3312 33.6004 18.4368 34.696 18.6183 35.4649C18.6447 35.5771 18.6975 35.8081 18.7404 35.9797C18.9978 37.0951 19.6512 38.656 20.3211 39.7747C20.6709 40.3588 21.1494 41.0452 21.3672 41.2762C21.4002 41.3125 21.4761 41.4082 21.5355 41.4907C21.6675 41.6722 22.4331 42.5137 22.4661 42.5137C22.4793 42.5137 22.5915 42.6193 22.7169 42.748C22.9974 43.0351 23.6574 43.5928 24.0996 43.9162C25.0566 44.6158 26.4195 45.3583 27.3006 45.6652C27.4458 45.718 27.5811 45.7708 27.5976 45.784C27.6636 45.8302 28.4721 46.0777 28.9902 46.2064C30.165 46.5034 31.0923 46.6123 32.4321 46.6123C33.0228 46.6123 33.5244 46.5925 33.8676 46.5595C36.0819 46.3351 38.2335 45.5794 40.1046 44.3683C40.2861 44.2528 40.4412 44.1439 40.4511 44.1307C40.461 44.1175 40.5501 44.0548 40.6524 43.9921C41.0913 43.7116 41.9691 42.9559 42.5928 42.3157C43.3518 41.5369 44.1504 40.4776 44.6685 39.5569C44.9325 39.0949 44.8962 38.9662 44.4408 38.7154C44.289 38.6296 43.563 38.2303 42.8271 37.8277C42.0912 37.4218 41.1342 36.8971 40.6986 36.6562C39.0024 35.719 36.8838 34.5541 35.7321 33.9271C35.0688 33.5641 34.4748 33.2341 34.4121 33.1912C34.3494 33.1516 34.257 33.0955 34.2075 33.0724C34.0881 33.0106 33.5822 32.7409 33.2097 32.5394C32.9458 32.3968 32.7951 32.1361 32.7951 31.8362C32.7951 31.5819 32.7951 31.1813 32.7951 30.4852L32.7611 29.0686C32.7556 28.8402 32.8783 28.6278 33.0789 28.5184C33.2373 28.4194 33.4056 28.3072 33.4551 28.2643C33.5046 28.2247 33.5607 28.1917 33.5772 28.1917C33.5904 28.1917 33.7521 28.096 33.9336 27.9772C34.1118 27.8584 34.2636 27.7627 34.2702 27.7627C34.2768 27.7627 34.3428 27.7231 34.422 27.6736C34.4979 27.6274 34.6134 27.5548 34.6761 27.5152C34.7751 27.4525 35.3163 27.1093 35.5209 26.9806C36.1413 26.5846 36.4251 26.4064 36.5835 26.3107C36.6891 26.248 36.9762 26.0632 37.2204 25.9048C37.7154 25.5814 38.4579 25.1095 38.7879 24.9082C38.9067 24.8356 39.1212 24.7003 39.2631 24.6112C40.1376 24.0502 40.9956 23.509 41.8536 22.9777C42.1275 22.8094 42.4674 22.5916 42.6126 22.4992C42.7578 22.4035 42.9822 22.2649 43.1076 22.1857C43.2363 22.1098 43.4244 21.9943 43.5267 21.9283C43.629 21.859 43.8732 21.7105 44.0613 21.5917C44.2527 21.4729 44.6949 21.199 45.0447 20.9779C45.3945 20.7601 45.8466 20.4796 46.0446 20.3542C46.2459 20.2288 46.5264 20.0506 46.6716 19.9582C46.8168 19.8625 47.2194 19.6117 47.5626 19.3939C47.9091 19.1794 48.2358 18.9715 48.2952 18.9352C48.3513 18.8989 48.5361 18.7834 48.7077 18.6745C48.876 18.5689 49.0674 18.4468 49.1301 18.4072C49.1928 18.3676 49.668 18.0673 50.1861 17.7472C50.7042 17.4238 51.6678 16.8166 52.3311 16.4008C52.9944 15.985 53.7072 15.5395 53.9151 15.4108C54.123 15.2821 54.3111 15.1633 54.3276 15.1468C54.354 15.127 54.8325 14.8234 56.532 13.7542C57.1194 13.3846 57.3339 13.2196 57.4527 13.0447C57.7035 12.6817 57.6738 12.5926 57.0963 11.9062C55.4859 9.99218 53.6115 8.21678 51.6711 6.77138C49.932 5.47448 48.579 4.64949 46.6056 3.67269C43.9557 2.36589 41.1573 1.43198 38.3886 0.933685C38.0817 0.880886 37.7088 0.811584 37.5636 0.785186C36.9531 0.676284 35.6826 0.531085 34.6596 0.45518C34.0425 0.408984 31.7853 0.366076 31.3101 0.392482Z" fill="#FFA337"/>
</svg>
